<svg xmlns="http://www.w3.org/2000/svg" viewBox="0 0 1600 1000" preserveAspectRatio="xMidYMid slice">
  <defs>
    <linearGradient id="sky" x1="0" y1="0" x2="0" y2="1">
      <stop offset="0%" stop-color="#dff5ff" />
      <stop offset="55%" stop-color="#c7ecff" />
      <stop offset="100%" stop-color="#9ad9f7" />
    </linearGradient>
    <linearGradient id="sea" x1="0" y1="0" x2="1" y2="0">
      <stop offset="0%" stop-color="#67c6ec" />
      <stop offset="50%" stop-color="#4cb6e6" />
      <stop offset="100%" stop-color="#2da5db" />
    </linearGradient>
    <linearGradient id="sand" x1="0" y1="0" x2="0" y2="1">
      <stop offset="0%" stop-color="#f6e8c8" />
      <stop offset="100%" stop-color="#ecd9ad" />
    </linearGradient>
    <filter id="soft" x="-20%" y="-20%" width="140%" height="140%">
      <feGaussianBlur stdDeviation="8" />
    </filter>
  </defs>

  <rect width="1600" height="1000" fill="url(#sky)" />
  <ellipse cx="1280" cy="180" rx="110" ry="110" fill="#fff7cf" opacity="0.75" filter="url(#soft)" />

  <path d="M0,500 C240,460 460,520 700,490 C960,455 1170,510 1600,470 L1600,760 L0,760 Z" fill="url(#sea)" opacity="0.92" />
  <path d="M0,620 C260,600 480,670 760,640 C980,617 1220,665 1600,635 L1600,900 L0,900 Z" fill="#82d2ef" opacity="0.6" />
  <path d="M0,730 C280,690 520,760 860,735 C1120,716 1320,760 1600,742 L1600,1000 L0,1000 Z" fill="url(#sand)" />

  <g opacity="0.32">
    <circle cx="180" cy="190" r="4" fill="#ffffff" />
    <circle cx="320" cy="260" r="3" fill="#ffffff" />
    <circle cx="470" cy="160" r="5" fill="#ffffff" />
    <circle cx="610" cy="240" r="3" fill="#ffffff" />
    <circle cx="760" cy="150" r="4" fill="#ffffff" />
    <circle cx="930" cy="230" r="3" fill="#ffffff" />
    <circle cx="1100" cy="170" r="4" fill="#ffffff" />
    <circle cx="1290" cy="250" r="3" fill="#ffffff" />
    <circle cx="1460" cy="190" r="4" fill="#ffffff" />
  </g>
</svg>
